<?xml version="1.0" encoding="UTF-8"?>
<svg width="100pt" height="100pt" version="1.1" viewBox="0 0 100 100" xmlns="http://www.w3.org/2000/svg">
 <g>
  <path d="m75 25h-50l-2.082-8.332h54.164z"/>
  <path d="m27.082 29.168v54.168h18.75v-12.5h8.332v12.5h18.75l0.003907-54.168zm14.586 37.5h-8.332v-8.332h8.332zm0-12.5h-8.332v-8.332h8.332zm0-12.5h-8.332v-8.332h8.332zm12.5 25h-8.332v-8.332h8.332zm0-12.5h-8.332v-8.332h8.332zm0-12.5h-8.332v-8.332h8.332zm12.5 25h-8.332v-8.332h8.332zm0-12.5h-8.332v-8.332h8.332zm0-12.5h-8.332v-8.332h8.332z"/>
 </g>
</svg>
